<svg width="150" height="30" viewBox="0 0 150 30" fill="none" xmlns="http://www.w3.org/2000/svg">
<path d="M37.2891 11.7325V9.20308H38.866V5.75293H41.787V9.20308H45.7239V11.7325H41.787V17.8496C41.7648 18.07 41.821 18.291 41.9457 18.4741C42.1215 18.6062 42.3409 18.6668 42.5595 18.6434H45.7345V21.1199H42.5595C41.5516 21.2176 40.5395 20.9795 39.6809 20.4425C39.3671 20.094 39.1319 19.6821 38.9913 19.2348C38.8507 18.7874 38.808 18.315 38.866 17.8496V11.7325H37.2891Z" fill="#DCFEBC"/>
<path d="M50.1965 9.20325V11.0024C50.5093 10.4397 50.9711 9.97413 51.5312 9.65674C52.0913 9.33935 52.728 9.18244 53.3715 9.20325H54.7791V11.7327H53.4667C52.1438 11.7327 51.2866 12.0396 50.895 12.6322C50.3854 13.8116 50.1745 15.0984 50.2812 16.3787V21.12H47.3813V9.20325H50.1965Z" fill="#DCFEBC"/>
<path d="M55.0197 15.1614C54.9547 13.5081 55.5441 11.8957 56.6601 10.6741C57.2657 10.0827 57.9878 9.62391 58.7804 9.32691C59.573 9.02991 60.4188 8.90122 61.2639 8.94906C62.0743 8.90034 62.8858 9.02421 63.6447 9.31247C64.4037 9.60073 65.0928 10.0468 65.6665 10.6212C66.7353 11.828 67.2931 13.4029 67.2223 15.0133C67.2223 15.3519 67.2223 15.7012 67.2223 16.0716H57.9407C57.9652 16.89 58.3112 17.6657 58.9038 18.2306C59.552 18.7878 60.3889 19.0756 61.2427 19.0349C61.6373 19.0412 62.0304 18.9841 62.4069 18.8656C62.6991 18.7811 62.9722 18.641 63.2112 18.4529C63.3797 18.3077 63.5355 18.1483 63.6769 17.9766C63.7762 17.8603 63.8549 17.7278 63.9097 17.585V17.4051H66.8836C66.8598 17.5488 66.8244 17.6904 66.7778 17.8284C66.6536 18.155 66.5013 18.4701 66.3227 18.7704C66.0747 19.2197 65.7527 19.6241 65.3702 19.9663C64.8749 20.3795 64.3082 20.6988 63.698 20.9082C62.887 21.1996 62.0303 21.343 61.1686 21.3315C60.3368 21.3709 59.5056 21.2432 58.724 20.956C57.9424 20.6688 57.2262 20.2279 56.6178 19.6593C56.0595 19.0578 55.6297 18.3486 55.355 17.5752C55.0802 16.8018 54.9661 15.9805 55.0197 15.1614V15.1614ZM57.9407 13.9761H64.2907V13.902C64.3015 13.5377 64.229 13.1757 64.0786 12.8438C63.9282 12.5118 63.7039 12.2185 63.4229 11.9865C62.8092 11.4763 62.0297 11.2089 61.2321 11.235C60.3968 11.1954 59.5771 11.4712 58.9355 12.0076C58.3715 12.5179 58.017 13.2194 57.9407 13.9761V13.9761Z" fill="#DCFEBC"/>
<path d="M68.3102 15.1614C68.2445 13.5061 68.8383 11.8922 69.9612 10.6741C70.564 10.0819 71.2841 9.62251 72.0752 9.3254C72.8662 9.02829 73.7107 8.9001 74.5543 8.94906C75.3647 8.90034 76.1762 9.02421 76.9352 9.31247C77.6942 9.60073 78.3833 10.0468 78.957 10.6212C80.0258 11.828 80.5836 13.4029 80.5127 15.0133C80.5127 15.3519 80.5127 15.7012 80.5127 16.0716H71.2312C71.2542 16.4855 71.3596 16.8906 71.5414 17.2632C71.7231 17.6358 71.9775 17.9683 72.2895 18.2412C72.941 18.8 73.7818 19.0878 74.639 19.0455C75.0301 19.051 75.4196 18.9939 75.7926 18.8762C76.0848 18.7917 76.3579 18.6516 76.5969 18.4634C76.7654 18.3182 76.9212 18.1589 77.0626 17.9872C77.1619 17.8709 77.2407 17.7384 77.2954 17.5956L77.3483 17.4157H80.3222C80.2985 17.5594 80.2631 17.701 80.2164 17.839C80.0922 18.1656 79.94 18.4807 79.7613 18.7809C79.5134 19.2303 79.1914 19.6346 78.8088 19.9768C78.3153 20.3927 77.7481 20.7123 77.1367 20.9188C76.3257 21.2102 75.4689 21.3536 74.6073 21.3421C73.7755 21.3809 72.9445 21.2529 72.1629 20.9657C71.3814 20.6786 70.6652 20.238 70.0564 19.6699C69.4702 19.0795 69.0124 18.3742 68.7119 17.5983C68.4114 16.8224 68.2746 15.9927 68.3102 15.1614V15.1614ZM71.2312 13.9761H77.5812V13.902C77.592 13.5377 77.5195 13.1757 77.3691 12.8438C77.2187 12.5118 76.9944 12.2185 76.7133 11.9865C76.1039 11.4761 75.3276 11.2085 74.5332 11.235C73.6944 11.1938 72.8708 11.4696 72.226 12.0076C71.662 12.5179 71.3074 13.2194 71.2312 13.9761V13.9761Z" fill="#DCFEBC"/>
<path d="M94.8916 9.20361H97.9502L101.125 17.5644L104.395 9.20361H107.443L101.908 22.6232C101.623 23.3006 101.411 23.798 101.252 24.0943C101.059 24.4388 100.824 24.7586 100.554 25.0468C100.271 25.3644 99.9039 25.5956 99.4953 25.7135C98.9623 25.8448 98.4143 25.9053 97.8655 25.8935H95.7912V23.3746H97.8232C98.0838 23.398 98.3462 23.3543 98.5852 23.2476C98.7808 23.0651 98.9328 22.8409 99.0297 22.5915L99.7176 20.8452L94.8916 9.20361Z" fill="#DCFEBC"/>
<path d="M104.657 11.7325V9.20308H108.361V5.75293H111.282V9.20308H115.208V11.7325H111.282V17.8496C111.26 18.07 111.316 18.291 111.441 18.474C111.613 18.6046 111.829 18.6651 112.044 18.6434H115.219V21.1199H112.044C111.039 21.2176 110.031 20.9794 109.176 20.4425C108.86 20.0956 108.623 19.6839 108.482 19.236C108.341 18.7882 108.3 18.3151 108.361 17.8496V11.7325H104.657Z" fill="#DCFEBC"/>
<path d="M119.697 9.20346V11.0026C120.009 10.4391 120.47 9.97288 121.03 9.65536C121.591 9.33785 122.228 9.18145 122.872 9.20346H124.269V11.7329H122.956C121.633 11.7329 120.776 12.0398 120.385 12.6324C119.87 13.8104 119.655 15.0977 119.76 16.3789V21.1202H116.86V9.20346H119.697Z" fill="#DCFEBC"/>
<path d="M124.521 15.1614C124.452 13.5075 125.042 11.8938 126.161 10.6741C126.767 10.0827 127.489 9.62385 128.282 9.32685C129.074 9.02984 129.92 8.90116 130.765 8.94899C131.574 8.90044 132.384 9.02442 133.141 9.31272C133.898 9.60101 134.585 10.047 135.157 10.6211C136.226 11.8279 136.784 13.4028 136.713 15.0132C136.716 15.3667 136.698 15.7201 136.66 16.0715H127.442C127.456 16.481 127.551 16.8835 127.722 17.2559C127.893 17.6283 128.136 17.9631 128.437 18.2411C129.09 18.7971 129.929 19.0845 130.786 19.0455C131.181 19.051 131.574 18.9939 131.95 18.8761C132.242 18.7893 132.514 18.6493 132.755 18.4634C132.922 18.3208 133.075 18.1612 133.21 17.9871C133.312 17.8707 133.394 17.7385 133.453 17.5955V17.4156H136.427C136.427 17.5215 136.374 17.659 136.321 17.839C136.192 18.1651 136.036 18.4801 135.856 18.7809C135.608 19.2275 135.29 19.6314 134.914 19.9768C134.417 20.3881 133.851 20.7071 133.241 20.9187C132.43 21.2092 131.574 21.3526 130.712 21.342C129.88 21.3826 129.049 21.2555 128.267 20.9682C127.485 20.681 126.769 20.2394 126.161 19.6699C125.595 19.0702 125.157 18.3608 124.874 17.5854C124.592 16.81 124.472 15.9851 124.521 15.1614V15.1614ZM127.452 13.9761H133.802V13.902C133.82 13.5419 133.755 13.1826 133.614 12.8509C133.473 12.5192 133.259 12.2236 132.987 11.9864C132.374 11.4762 131.594 11.2088 130.797 11.235C129.958 11.1958 129.135 11.4713 128.49 12.0076C127.908 12.5111 127.535 13.2127 127.442 13.9761H127.452Z" fill="#DCFEBC"/>
<path d="M137.791 15.1614C137.726 13.5061 138.32 11.8922 139.442 10.6741C140.048 10.0827 140.77 9.62391 141.563 9.32691C142.355 9.02991 143.201 8.90122 144.046 8.94906C144.857 8.90034 145.668 9.02421 146.427 9.31247C147.186 9.60073 147.875 10.0468 148.449 10.6212C149.511 11.8313 150.064 13.4048 149.994 15.0133C149.994 15.3519 149.994 15.7012 149.994 16.0716H140.765C140.779 16.4821 140.875 16.8857 141.048 17.2583C141.221 17.631 141.467 17.9652 141.771 18.2412C142.419 18.7983 143.256 19.0861 144.11 19.0455C144.504 19.0511 144.897 18.9939 145.274 18.8762C145.565 18.7893 145.838 18.6494 146.078 18.4634C146.246 18.3209 146.398 18.1613 146.533 17.9872C146.635 17.8708 146.717 17.7385 146.777 17.5956V17.4157H149.751C149.751 17.5215 149.751 17.6591 149.645 17.839C149.521 18.1656 149.368 18.4807 149.19 18.7809C148.938 19.228 148.617 19.6317 148.237 19.9768C147.74 20.3882 147.174 20.7072 146.565 20.9188C145.754 21.2093 144.897 21.3526 144.036 21.3421C143.204 21.3827 142.372 21.2555 141.59 20.9683C140.809 20.681 140.092 20.2395 139.485 19.6699C138.909 19.0747 138.461 18.3672 138.17 17.5917C137.878 16.8161 137.75 15.9889 137.791 15.1614V15.1614ZM140.723 13.9761H147.126V13.902C147.137 13.5377 147.064 13.1757 146.914 12.8438C146.763 12.5118 146.539 12.2185 146.258 11.9865C145.644 11.4763 144.865 11.2089 144.067 11.235C143.229 11.1958 142.406 11.4714 141.76 12.0076C141.183 12.5129 140.813 13.2142 140.723 13.9761V13.9761Z" fill="#DCFEBC"/>
<path d="M84.8774 4.12402V10.7386C85.3111 10.1827 85.867 9.7341 86.502 9.42761C87.1371 9.12112 87.8341 8.96494 88.5392 8.97117H88.8884C89.6999 8.9384 90.5094 9.07273 91.2667 9.36584C92.0241 9.65895 92.7131 10.1046 93.2911 10.6751C93.8498 11.2785 94.2834 11.9867 94.5668 12.7588C94.8502 13.5308 94.9777 14.3514 94.9421 15.173C94.9878 15.9974 94.8629 16.8224 94.5752 17.5964C94.2874 18.3703 93.8431 19.0765 93.2699 19.6709C92.6973 20.2241 92.0186 20.6557 91.2746 20.9394C90.5307 21.2232 89.7369 21.3533 88.9413 21.3219C88.7475 21.3327 88.5531 21.3327 88.3593 21.3219C87.6559 21.3075 86.9662 21.1251 86.3477 20.7901C85.7291 20.455 85.1996 19.977 84.8033 19.3957V21.089H81.9775V4.12402H84.8774ZM85.7769 17.9564C86.0949 18.3135 86.4895 18.5941 86.9311 18.7774C87.3728 18.9606 87.8501 19.0418 88.3275 19.0147C88.8146 19.0312 89.2998 18.9456 89.7518 18.7633C90.2039 18.581 90.6127 18.3062 90.9522 17.9564C91.3046 17.5882 91.5798 17.1531 91.7616 16.6769C91.9433 16.2007 92.028 15.693 92.0105 15.1836C92.0645 14.1327 91.7035 13.1026 91.0051 12.3155C90.6649 11.9638 90.2543 11.6878 89.8003 11.5055C89.3462 11.3231 88.8588 11.2385 88.3698 11.2572C87.892 11.2396 87.416 11.325 86.9741 11.5076C86.5322 11.6902 86.1347 11.9657 85.8087 12.3155C85.1355 13.1178 84.7981 14.1491 84.8668 15.1941C84.816 16.1961 85.1405 17.1809 85.7769 17.9564Z" fill="#DCFEBC"/>
<path d="M20.7953 13.0496C19.4854 13.0574 18.005 14.4226 14.7806 14.9063C17.4004 12.956 19.4079 12.8623 20.338 11.934C21.0356 11.2397 20.8264 9.96804 20.1598 9.29713C19.4932 8.62622 18.2298 8.42338 17.5399 9.1177C16.6176 10.0539 16.5323 12.0744 14.5868 14.7113C15.0674 11.4659 16.4238 9.97585 16.4315 8.65742C16.4393 7.67445 15.3929 6.91772 14.455 6.91772C13.5172 6.91772 12.4708 7.67445 12.4785 8.65742C12.4863 9.97585 13.8427 11.4659 14.3233 14.7113C12.3855 12.0744 12.2925 10.0539 11.3701 9.1177C10.6803 8.41558 9.41687 8.62622 8.75029 9.29713C8.0837 9.96804 7.88217 11.2397 8.57201 11.934C9.50213 12.8623 11.5096 12.9482 14.1295 14.9063C10.9051 14.4148 9.42462 13.0574 8.1147 13.0496C7.13808 13.0418 6.38623 14.0949 6.38623 15.0389C6.38623 15.9829 7.13808 17.0361 8.1147 17.0282C9.23085 17.0204 10.471 16.0297 12.8118 15.4368C13.5482 15.2964 14.1915 15.9439 14.052 16.685C13.4629 19.041 12.4785 20.2892 12.4708 21.4204C12.463 22.4034 13.5094 23.1601 14.4473 23.1601C15.3851 23.1601 16.4315 22.4034 16.4238 21.4204C16.416 20.297 15.4317 19.0488 14.8426 16.6928C14.7031 15.9517 15.3464 15.2964 16.0905 15.4368C18.4313 16.0297 19.6715 17.0204 20.7876 17.0282C21.7642 17.0361 22.5161 15.9829 22.5161 15.0389C22.5238 14.0949 21.772 13.0418 20.7953 13.0496Z" fill="#DCFEBC"/>
<path fill-rule="evenodd" clip-rule="evenodd" d="M14.4683 27.2761C21.2482 27.2761 26.7444 21.7799 26.7444 15C26.7444 8.22011 21.2482 2.7239 14.4683 2.7239C7.68837 2.7239 2.19216 8.22011 2.19216 15C2.19216 21.7799 7.68837 27.2761 14.4683 27.2761ZM14.4683 29.4683C22.4589 29.4683 28.9366 22.9906 28.9366 15C28.9366 7.00941 22.4589 0.531738 14.4683 0.531738C6.47767 0.531738 0 7.00941 0 15C0 22.9906 6.47767 29.4683 14.4683 29.4683Z" fill="#DCFEBC"/>
</svg>
