<svg width="444" height="329" viewBox="0 0 444 329" fill="none" xmlns="http://www.w3.org/2000/svg">
<path d="M278.337 304.299C241.903 321.233 201.108 334.318 161.596 326.108C117.208 316.615 82.8275 282.234 55.1175 245.287C53.065 242.722 51.2688 239.899 49.2162 237.334C30.9995 211.933 13.5525 184.736 5.08554 154.717C-3.38141 124.184 -1.84186 90.8298 14.3223 63.3764C30.2299 36.1795 58.9661 18.2194 89.2418 9.49592C119.261 1.029 151.076 0.515876 182.378 1.02902C221.377 2.0553 260.12 5.39073 298.093 11.5485C329.395 16.68 363.519 24.1206 391.999 39.2584C421.248 54.6529 439.209 79.284 442.544 112.382C454.09 212.189 351.973 270.175 278.337 304.299ZM341.967 82.1062C318.875 72.3564 289.113 68.7644 266.021 66.1987C241.647 63.3764 217.016 60.8107 192.384 59.7844C172.628 59.0147 152.359 59.2712 133.116 64.1461C113.36 69.021 94.3733 80.3103 82.8275 96.9876C71.2817 113.665 67.9462 134.96 72.5645 154.973C77.1829 174.473 88.2156 191.663 100.531 207.571C101.814 209.367 103.097 210.65 104.38 212.446C123.366 235.537 145.945 255.55 174.168 261.708C199.569 267.096 225.483 260.682 249.601 251.445C299.376 232.459 370.447 195.769 367.111 139.579C381.993 110.329 366.342 92.6257 341.967 82.1062Z" fill="#E3DCD5"/>
</svg>
