<svg width="834" height="455" viewBox="0 0 834 455" fill="none" xmlns="http://www.w3.org/2000/svg">
<path d="M465.153 417.676C373.813 459.241 297.867 465.398 240.138 435.379C214.224 421.781 192.415 401.511 171.376 381.499C124.423 337.111 76.187 291.441 45.3981 233.456C27.6945 200.358 14.8659 161.358 6.14244 114.149C1.26755 87.7215 -2.58106 57.1892 6.14244 29.4793C13.8397 5.36131 29.7472 -15.1646 47.1942 -35.6906C69.2596 -61.8611 92.3512 -87.5185 115.956 -112.15C129.041 -125.748 141.1 -137.807 156.495 -143.965C175.738 -151.405 198.06 -149.096 217.816 -146.787L458.226 -119.334C500.304 -114.715 548.026 -109.071 592.67 -119.847C632.183 -129.596 679.392 -157.306 693.247 -206.569C695.813 -216.318 697.352 -226.068 698.379 -235.818C699.405 -244.542 700.431 -253.265 702.484 -261.475C705.306 -273.021 710.438 -283.284 716.852 -292.778L767.91 -241.719C756.878 -225.042 748.924 -206.312 744.819 -186.812C743.536 -180.398 742.509 -173.727 741.74 -167.313C739.174 -148.326 736.095 -128.827 724.036 -114.202C719.161 -108.301 712.747 -102.913 706.076 -97.7814C694.274 -88.0316 681.958 -78.2818 679.905 -62.8873C677.853 -45.9534 690.681 -31.0721 698.892 -23.8881C702.484 -20.8092 706.076 -17.7304 709.668 -14.6515C717.109 -8.75029 724.806 -2.59239 730.194 4.84827C735.069 11.2626 738.404 19.2164 741.74 26.657C743.792 31.2753 745.845 36.4068 748.411 41.0251C752.259 48.4658 763.292 65.1431 780.995 65.9128C794.85 66.426 806.396 56.4196 815.889 46.9264C835.132 26.657 852.58 4.07851 869 -17.9868C879.007 -31.0721 889.27 -44.9272 900.046 -57.7559C908.256 -67.5057 916.467 -76.7424 924.42 -84.6961L955.466 -53.6507C949.821 -45.9535 944.946 -37.9996 940.328 -31.3287C797.16 190.864 641.676 337.624 465.153 417.676ZM598.315 -2.33583C564.191 -23.1183 525.191 -34.4075 486.192 -41.5916C434.108 -51.598 381.253 -55.19 327.886 -56.2163C285.038 -56.986 241.677 -56.2164 200.882 -43.6444C160.087 -31.0722 121.344 -6.18447 101.075 31.5319C80.8054 69.2483 81.062 115.175 93.3775 156.227C105.693 197.279 129.041 233.969 153.672 268.863C191.902 323 239.368 378.163 304.281 391.762C358.162 403.051 413.582 383.551 462.587 358.664C559.316 309.145 721.214 224.732 674.004 86.6952C661.432 48.9789 632.183 18.1901 598.315 -2.33583Z" fill="#E3DCD5"/>
</svg>
