<svg width="50" height="33" viewBox="0 0 50 33" fill="none" xmlns="http://www.w3.org/2000/svg">
<path d="M23.7863 3.93988C19.0855 1.57968 15.2051 0.660549 12.2897 1.23652C10.9811 1.4996 9.88851 2.04517 8.83496 2.58834C6.48347 3.79042 4.0678 5.02792 2.55435 6.877C1.68388 7.93127 1.06793 9.24679 0.66951 10.9014C0.446908 11.8276 0.280717 12.9141 0.753107 14.0115C1.16959 14.9677 2.00139 15.8668 2.91172 16.78C4.06322 17.9426 5.26658 19.0958 6.4951 20.2159C7.17607 20.8348 7.80317 21.3878 8.5946 21.7545C9.58363 22.2034 10.7201 22.3222 11.7257 22.4177L23.9631 23.6027C26.1052 23.817 28.5342 24.0451 30.8223 24.8482C32.8477 25.5669 35.2835 27.0155 36.0389 28.9515C36.1794 29.333 36.2676 29.7052 36.3296 30.0727C36.3906 30.4025 36.4515 30.7323 36.5643 31.0527C36.7197 31.5025 36.9916 31.9263 37.3282 32.3336L39.8826 30.9239C39.3033 30.2106 38.879 29.4501 38.6503 28.6963C38.5786 28.449 38.5196 28.1946 38.474 27.9519C38.3244 27.2311 38.1481 26.4867 37.5184 25.8395C37.2639 25.5782 36.9314 25.3218 36.586 25.0724C35.9742 24.6066 35.3363 24.1361 35.2164 23.5519C35.095 22.9111 35.7348 22.4815 36.1465 22.2926C36.3267 22.2122 36.5069 22.1319 36.6871 22.0516C37.0609 21.9027 37.4475 21.7467 37.715 21.5226C37.9574 21.3314 38.1197 21.0697 38.2825 20.8268C38.3827 20.6759 38.4823 20.5061 38.6086 20.3599C38.7976 20.1217 39.344 19.6097 40.2464 19.743C40.9527 19.8506 41.5516 20.3235 42.0453 20.7588C43.047 21.6789 43.9593 22.6675 44.8188 23.6279C45.3422 24.1998 45.8794 24.8024 46.4419 25.372C46.8703 25.805 47.2983 26.2192 47.7119 26.584L49.2651 25.7268C48.9695 25.3926 48.713 25.0559 48.4708 24.7687C40.9476 15.3006 32.8707 8.49101 23.7863 3.93988ZM30.9943 20.5832C29.274 21.0353 27.2955 21.0941 25.3131 21.0022C22.6659 20.8945 19.973 20.5442 17.2515 20.095C15.0664 19.7323 12.8536 19.3084 10.76 18.4744C8.66639 17.6404 6.66535 16.3727 5.59406 14.8023C4.52278 13.2319 4.49053 11.5472 5.07828 10.1516C5.66602 8.75603 6.82091 7.62132 8.04302 6.56428C9.93985 4.92446 12.3069 3.33123 15.605 3.42398C18.3426 3.5009 21.1891 4.72284 23.7137 6.08417C28.6972 8.7857 37.0398 13.3636 34.7677 18.0034C34.1636 19.2741 32.7018 20.1382 30.9943 20.5832Z" stroke="#DCFEBC" stroke-width="0.5" stroke-miterlimit="10"/>
<path d="M22.2741 7.77749C20.3987 6.82303 18.3046 5.97015 16.297 5.91123C14.0419 5.85496 12.3219 6.80418 10.9448 7.90852C10.8426 7.98404 10.7538 8.07133 10.6516 8.14685C9.74732 8.91369 8.88411 9.75353 8.48181 10.779C8.08001 11.8233 8.19148 13.0625 9.04321 14.2185C9.88159 15.3626 11.3653 16.2846 12.9184 16.8812C14.4582 17.4662 16.0818 17.7753 17.6782 18.042C19.6667 18.3602 21.6399 18.5911 23.571 18.7114C25.1628 18.8085 26.8963 18.8465 28.3343 18.5503C29.8112 18.2517 30.7031 17.5108 30.8406 16.3255C31.3311 12.7646 26.0644 9.70285 22.2741 7.77749ZM25.7396 16.5199C24.5712 16.6674 23.0564 16.5278 21.8809 16.4113C20.6402 16.2926 19.3862 16.1621 18.1306 15.9751C17.1235 15.8231 16.0892 15.6287 15.1027 15.2741C14.09 14.9147 13.1103 14.3268 12.5048 13.6089C11.8993 12.8909 11.7082 12.0782 11.924 11.3852C12.1404 10.7111 12.6862 10.1803 13.2988 9.70832C13.3625 9.65405 13.4266 9.61863 13.4903 9.56437C14.4361 8.88937 15.5682 8.36025 17.0019 8.39156C18.2924 8.4254 19.6208 8.89746 20.8603 9.4568C23.4183 10.6084 27.0802 12.6046 26.9656 14.6382C27.7536 15.8484 26.9727 16.3559 25.7396 16.5199Z" stroke="#DCFEBC" stroke-width="0.5" stroke-miterlimit="10"/>
</svg>
